# xmcd CD database file
#
# Track frame offsets:
#	150
#	18118
#	30559
#	44174
#	54075
#	59083
#	79589
#	92091
#	99645
#	104981
#	118922
#	128232
#	142622
#	156381
#	169914
#	183441
#	208712
#	219220
#	230321
#	244007
#	251001
#	261153
#	275346
#	289260
#	299119
#
# Disc length: 4158 seconds
#
# Revision: 5
# Processed by: cddbd v1.5.1PL0 Copyright (c) Steve Scherf et al.
# Submitted via: CDex 1.50
#
DISCID=7b103c19
DTITLE=Leadbelly - The Definitive Leadbelly [CDTwo)
DYEAR=2002
DGENRE=Folk
TTITLE0=Somebody's Digging My Potatoes
TTITLE1=Dancing With Tears In My Heart
TTITLE2=Salty Dog
TTITLE3=Whoa Back Up
TTITLE4=Sukey Jump
TTITLE5=How Long
TTITLE6=Eagle Rock Rag
TTITLE7=Laura
TTITLE8=Big Fat Woman
TTITLE9=My Friend Blind Lemon
TTITLE10=Easy Mr Tom
TTITLE11=New Black Snake
TTITLE12=Matchbox Blues
TTITLE13=Death Letter Blues 1
TTITLE14=Death Letter Blues 2
TTITLE15=Bourgeois Blues
TTITLE16=We're In The Same Boat, Brother
TTITLE17=Jean Harlow
TTITLE18=Howard Hughes
TTITLE19=Cow Cow Yickety, Yickety, Yea
TTITLE20=When I Was A Cowboy
TTITLE21=TB Blues
TTITLE22=Alabama Bound
TTITLE23=Shout On
TTITLE24=He Never Said A Mumbling Word
EXTD=Part 2 Of the 3 Disc Set YEAR: 2002
EXTT0=
EXTT1=
EXTT2=
EXTT3=
EXTT4=
EXTT5=
EXTT6=
EXTT7=
EXTT8=
EXTT9=
EXTT10=
EXTT11=
EXTT12=
EXTT13=
EXTT14=
EXTT15=
EXTT16=
EXTT17=
EXTT18=
EXTT19=
EXTT20=
EXTT21=
EXTT22=
EXTT23=
EXTT24=
PLAYORDER=
